<?xml version="1.0" encoding="UTF-8" standalone="no"?>
<!-- Created with Inkscape (http://www.inkscape.org/) -->

<svg
   xmlns:dc="http://purl.org/dc/elements/1.1/"
   xmlns:cc="http://creativecommons.org/ns#"
   xmlns:rdf="http://www.w3.org/1999/02/22-rdf-syntax-ns#"
   xmlns:svg="http://www.w3.org/2000/svg"
   xmlns="http://www.w3.org/2000/svg"
   xmlns:sodipodi="http://sodipodi.sourceforge.net/DTD/sodipodi-0.dtd"
   xmlns:inkscape="http://www.inkscape.org/namespaces/inkscape"
   width="786.95428"
   height="239.7726"
   viewBox="0 0 208.21498 63.439833"
   version="1.1"
   id="svg5697"
   inkscape:version="0.92.0 r15299"
   sodipodi:docname="cognizant.svg">
  <defs
     id="defs5691">
    <style
       id="style5699">.cls-1{fill:none;}.cls-2{fill:#fff;}.cls-3{fill:#010101;}.cls-4{fill:#50b2ce;}.cls-5{fill:#6ab345;}.cls-6{fill:#74cbf1;}</style>
  </defs>
  <sodipodi:namedview
     id="base"
     pagecolor="#ffffff"
     bordercolor="#666666"
     borderopacity="1.0"
     inkscape:pageopacity="0.0"
     inkscape:pageshadow="2"
     inkscape:zoom="1.0217155"
     inkscape:cx="393.47714"
     inkscape:cy="119.8863"
     inkscape:document-units="mm"
     inkscape:current-layer="layer1"
     showgrid="false"
     fit-margin-top="0"
     fit-margin-left="0"
     fit-margin-right="0"
     fit-margin-bottom="0"
     units="px"
     inkscape:window-width="1280"
     inkscape:window-height="744"
     inkscape:window-x="-4"
     inkscape:window-y="-4"
     inkscape:window-maximized="1" />
  <metadata
     id="metadata5694">
    <rdf:RDF>
      <cc:Work
         rdf:about="">
        <dc:format>image/svg+xml</dc:format>
        <dc:type
           rdf:resource="http://purl.org/dc/dcmitype/StillImage" />
        <dc:title></dc:title>
      </cc:Work>
    </rdf:RDF>
  </metadata>
  <g
     inkscape:label="Layer 1"
     inkscape:groupmode="layer"
     id="layer1"
     transform="translate(85.768499,-251.81662)">
    <g
       id="g5853"
       transform="translate(-15.225633,-67.757658)">
      <path
         style="fill:#000000;stroke-width:0.26458332"
         inkscape:connector-curvature="0"
         class="cls-2"
         d="m 20.112086,345.94278 c 0.03122,-1.38747 -0.06892,-2.77497 -0.710539,-3.55444 -0.643943,-0.77417 -2.098145,-1.04753 -2.742565,-1.04753 -2.56876,0 -3.584495,1.55715 -3.691122,1.89417 -0.09663,0.26988 -0.70702,0.8808 -0.70702,5.07627 v 6.52974 c 0,5.99064 1.963208,6.70118 4.359249,6.70118 0.952103,0 3.830743,-0.33642 3.864345,-5.10927 h 3.213312 c 0.136683,7.72102 -5.310188,7.72102 -6.903879,7.72102 -3.043634,0 -7.7152499,-0.20619 -7.7152499,-9.68176 v -6.90679 c 0,-6.90211 3.0430519,-8.86934 7.8476999,-8.86934 4.841875,0 6.704727,2.50986 6.398948,7.24675 z"
         id="path5706" />
      <path
         style="fill:#000000;stroke-width:0.26458332"
         inkscape:connector-curvature="0"
         class="cls-2"
         d="m 26.405439,355.34981 c 0,-5.00497 0.576791,-9.13564 6.496155,-9.13564 5.926455,0 6.500284,4.13064 6.500284,9.13564 0,7.54546 -2.878085,8.63129 -6.500284,8.63129 -3.622198,0 -6.496155,-1.08583 -6.496155,-8.63129 m 10.083614,-1.18248 c 0,-4.67209 -1.45288,-5.68309 -3.587459,-5.68309 -2.129896,0 -3.586824,1.011 -3.586824,5.68309 0,5.55114 0.712285,7.54666 3.586824,7.54666 2.879275,0 3.587459,-1.99552 3.587459,-7.54666"
         id="path5708" />
      <path
         style="fill:#000000;stroke-width:0.26458332"
         inkscape:connector-curvature="0"
         class="cls-2"
         d="m 51.858858,346.55241 h 2.772621 v 18.81621 c 0,3.82429 -2.539312,4.73811 -6.297586,4.73811 -2.839217,0 -5.411496,-1.42224 -5.174668,-4.5684 h 3.113723 c 0.03357,1.59543 1.078785,2.46856 2.604135,2.46856 1.925981,0 2.981854,-1.186 2.981854,-2.94346 v -3.55561 h -0.106045 c -0.710539,1.35684 -2.263563,2.13337 -3.755364,2.13337 -4.637325,0 -5.551117,-3.98926 -5.551117,-9.07257 0,-7.85124 3.960972,-8.35437 5.346118,-8.35437 1.796944,0 3.211539,0.77591 3.995209,2.43384 h 0.07128 z m -3.252179,1.96368 c -3.146743,0 -3.250459,3.78884 -3.250459,6.05253 0,5.48632 1.254363,6.77191 3.32052,6.77191 3.347641,0 3.245141,-3.95981 3.245141,-6.32884 0,-2.53814 0.17026,-6.49552 -3.315229,-6.49552"
         id="path5710" />
      <path
         style="fill:#000000;stroke-width:0.26458332"
         inkscape:connector-curvature="0"
         class="cls-2"
         d="m 68.406957,363.64137 v -11.84225 c 0,-1.82877 -0.641641,-3.31464 -3.010667,-3.31464 -3.047735,0 -3.489616,2.70309 -3.489616,5.03795 v 10.11894 H 59.13519 v -13.53608 c 0,-1.186 -0.06831,-2.36847 -0.172614,-3.55267 h 2.944072 v 2.20054 h 0.137265 c 1.07876,-1.93246 2.367889,-2.5387 4.567794,-2.5387 3.653446,0 4.572555,2.19868 4.572555,5.58472 v 11.84219 z"
         id="path5712" />
      <path
         style="fill:#000000;stroke-width:0.26458332"
         inkscape:connector-curvature="0"
         class="cls-2"
         d="m 76.086991,339.20856 h 3.113723 v 2.97656 h -3.113723 z m 2.944654,24.43276 h -2.775479 v -17.0888 h 2.775479 z"
         id="path5714" />
      <polygon
         transform="matrix(0.26458333,0,0,0.26458333,-77.659101,314.45824)"
         style="fill:#000000"
         class="cls-2"
         points="649.011,177.32 649.011,185.889 608.201,185.889 608.201,176.055 636.35,130.137 636.35,129.867 609.59,129.867 609.59,121.301 648.109,121.301 648.109,130.901 619.591,177.32 "
         id="polygon5716" />
      <path
         style="fill:#000000;stroke-width:0.26458332"
         inkscape:connector-curvature="0"
         class="cls-2"
         d="m 106.10437,361.17106 h -0.0719 c -0.84074,1.96252 -2.16165,2.80972 -4.29445,2.80972 -3.622148,0 -4.666803,-2.33839 -4.666803,-5.61769 0,-5.17996 5.073333,-5.41388 8.961253,-5.3149 0.0719,-2.26356 0.10663,-4.73688 -2.87338,-4.73688 -1.86237,0 -2.84162,1.24902 -2.67247,3.04363 h -3.012389 c 0.133112,-3.82368 2.166937,-5.14048 5.786199,-5.14048 4.39872,0 5.55289,2.27012 5.55289,5.14048 v 8.22714 a 26.778029,26.778029 0 0 0 0.33819,4.05934 h -3.04715 z m -6.259807,-2.60472 c 0,1.65735 0.811267,3.14794 2.669487,3.14794 1.69505,0 3.7919,-1.0499 3.51854,-6.56805 -2.63359,0.0389 -6.188027,-0.20089 -6.188027,3.42011"
         id="path5718" />
      <path
         style="fill:#000000;stroke-width:0.26458332"
         inkscape:connector-curvature="0"
         class="cls-2"
         d="m 122.58473,363.64137 v -11.84225 c 0,-1.82877 -0.64278,-3.31464 -3.00947,-3.31464 -3.04954,0 -3.48962,2.70309 -3.48962,5.03795 v 10.11894 h -2.77323 v -13.53608 c 0,-1.186 -0.0666,-2.36847 -0.16669,-3.55267 h 2.93997 v 2.20054 h 0.13962 c 1.08054,-1.93246 2.36842,-2.5387 4.5678,-2.5387 3.65694,0 4.56723,2.19868 4.56723,5.58472 v 11.84219 z"
         id="path5720" />
      <path
         style="fill:#000000;stroke-width:0.26458332"
         inkscape:connector-curvature="0"
         class="cls-2"
         d="m 130.84254,346.55233 v -3.28459 l 2.77614,-1.25021 v 4.53483 h 3.72234 v 2.09566 h -3.72239 v 10.4577 c 0,1.08466 0,2.47037 2.53873,2.47037 0.20499,0 0.64394,-0.0684 1.25018,-0.13494 v 2.13336 c -0.91377,0.0666 -1.82639,0.26866 -2.74138,0.26866 -2.63829,0 -3.82368,-1.08289 -3.82368,-3.0466 v -12.14861 h -2.81027 v -2.09566 z"
         id="path5722" />
      <path
         style="fill:#010101;stroke-width:0.26458332"
         inkscape:connector-curvature="0"
         class="cls-3"
         d="M -38.824989,319.83886 A 31.455333,31.455333 0 1 0 -7.3676181,351.29567 31.454619,31.454619 0 0 0 -38.824989,319.83886"
         id="path5724" />
      <path
         style="fill:#50b2ce;stroke-width:0.26458332"
         inkscape:connector-curvature="0"
         class="cls-4"
         d="m -36.370687,369.3097 c 0,1.49413 -0.63926,3.19741 -2.448587,3.19741 -1.811099,0 -2.347833,-1.70328 -2.347833,-3.19741 v -4.52361 a 58.407352,58.407352 0 0 1 -13.536744,-8.64539 v 12.63705 c 0,9.16803 7.249583,13.75117 15.884525,13.75117 8.36795,0 15.71072,-4.41169 15.978795,-13.24153 -4.261458,-0.0913 -8.875791,-0.95514 -13.530209,-2.56934 z"
         id="path5726" />
      <path
         style="fill:#50b2ce;stroke-width:0.26458332"
         inkscape:connector-curvature="0"
         class="cls-4"
         d="m -27.845812,358.24242 h -8.524663 v 0.006 c 2.030862,1.07934 3.995208,1.67441 5.796227,1.67264 1.98374,0 2.740818,-0.66693 2.728436,-1.67912"
         id="path5728" />
      <path
         style="fill:#50b2ce;stroke-width:0.26458332"
         inkscape:connector-curvature="0"
         class="cls-4"
         d="m -47.249666,341.58102 c -5.553604,0.006 -1.548341,5.42859 2.223506,9.57985 a 42.827601,42.827601 0 0 0 3.859027,3.75769 v -11.41677 c -0.316362,-0.18912 -0.635688,-0.36351 -0.960438,-0.52729 q -2.667158,-1.39988 -5.122333,-1.3934"
         id="path5730" />
      <path
         style="fill:#50b2ce;stroke-width:0.26458332"
         inkscape:connector-curvature="0"
         class="cls-4"
         d="m -41.166869,333.27382 c 0,-1.48939 0.536126,-3.19918 2.347834,-3.19918 1.809353,0 2.448586,1.70976 2.448586,3.19918 v 3.43545 a 50.38807,50.38807 0 0 1 8.022167,4.70625 h 5.520504 v -7.60671 c 0,-9.16628 -7.460033,-13.74881 -15.991178,-13.74881 -8.119322,0 -15.014337,4.05289 -15.806208,12.15805 a 45.35752,45.35752 0 0 1 13.458348,2.54815 z"
         id="path5732" />
      <path
         style="fill:#6ab345;stroke-width:0.26458332"
         inkscape:connector-curvature="0"
         class="cls-5"
         d="m -14.604448,354.66731 -14.94835,0.0224 c 1.002162,1.33329 1.694444,2.59705 1.706827,3.55267 h 5.018537 v 10.53547 c 0,0.17497 -0.0076,0.34054 -0.01296,0.50961 0.264583,0.007 0.524933,0.008 0.78949,0.008 5.198216,-0.008 9.126193,-1.01926 10.761133,-3.30288 1.6402315,-2.34725 0.856668,-6.03424 -3.314647,-11.32556"
         id="path5734" />
      <path
         style="fill:#6ab345;stroke-width:0.26458332"
         inkscape:connector-curvature="0"
         class="cls-5"
         d="m -54.625376,332.21803 c -0.387694,-0.0112 -0.76827,-0.0159 -1.149482,-0.0159 -12.354242,0.0224 -14.972506,6.97397 -4.11652,18.91284 a 56.595777,56.595777 0 0 0 5.187527,5.02558 v -22.33179 c 0,-0.54851 0.02828,-1.07347 0.07837,-1.59075"
         id="path5736" />
      <path
         style="fill:#6ab345;stroke-width:0.26458332"
         inkscape:connector-curvature="0"
         class="cls-5"
         d="m -36.370687,336.70901 a 48.922304,48.922304 0 0 0 -4.79642,-1.94305 v 8.73559 a 18.078979,18.078979 0 0 1 3.894984,3.08428 l 15.021402,-0.0218 a 51.520407,51.520407 0 0 0 -6.097852,-5.14879 h -8.022167 z"
         id="path5738" />
      <path
         style="fill:#6ab345;stroke-width:0.26458332"
         inkscape:connector-curvature="0"
         class="cls-5"
         d="m -36.370687,366.71771 v -8.46931 a 27.273012,27.273012 0 0 1 -4.79642,-3.32997 v 9.86737 q 2.396728,1.09588 4.79642,1.93188"
         id="path5740" />
      <path
         style="fill:#74cbf1;stroke-width:0.26458332"
         inkscape:connector-curvature="0"
         class="cls-6"
         d="m -41.166869,354.91832 a 42.671682,42.671682 0 0 1 -3.859635,-3.75769 c -3.771265,-4.15068 -7.777004,-9.57336 -2.222924,-9.57985 q 2.455043,-0.005 5.121619,1.39399 c 0.325226,0.16377 0.643943,0.33816 0.96094,0.5267 v -8.73564 a 45.374454,45.374454 0 0 0 -13.458348,-2.54757 c -0.05009,0.51729 -0.07895,1.04225 -0.07895,1.59076 v 22.33168 a 58.397933,58.397933 0 0 0 13.5373,8.64544 z"
         id="path5742" />
      <path
         style="fill:#74cbf1;stroke-width:0.26458332"
         inkscape:connector-curvature="0"
         class="cls-6"
         d="m -36.370687,341.41552 h 8.022166 a 50.361902,50.361902 0 0 0 -8.022166,-4.70625 z"
         id="path5744" />
      <path
         style="fill:#74cbf1;stroke-width:0.26458332"
         inkscape:connector-curvature="0"
         class="cls-6"
         d="m -22.827566,358.24242 h -5.017955 c 0.0118,1.01219 -0.744696,1.67912 -2.72841,1.67912 -1.801098,0.002 -3.765947,-0.59327 -5.796809,-1.67264 v 8.46868 c 4.654418,1.61491 9.268777,2.47803 13.530209,2.56995 0.0053,-0.1691 0.01296,-0.33465 0.01296,-0.50962 z"
         id="path5746" />
      <path
         style="fill:#ffffff;stroke-width:0.26458332"
         inkscape:connector-curvature="0"
         class="cls-2"
         d="m -4.6503209,371.97289 a 2.8148491,2.8148491 0 1 1 0.8236744,-1.99552 2.7059995,2.7059995 0 0 1 -0.8236744,1.99552 m -3.7005683,-3.70351 a 2.3374614,2.3374614 0 0 0 -0.7046383,1.71154 2.365375,2.365375 0 0 0 0.7011458,1.72389 2.4124179,2.4124179 0 0 0 3.4242375,0 2.3598187,2.3598187 0 0 0 0.7052204,-1.72389 2.4138202,2.4138202 0 0 0 -4.1259389,-1.71154 m 1.6549952,0.15672 a 2.3489443,2.3489443 0 0 1 0.8425127,0.11133 0.76538666,0.76538666 0 0 1 0.4788958,0.78243 0.67317937,0.67317937 0 0 1 -0.301625,0.6092 1.1637433,1.1637433 0 0 1 -0.4459817,0.14965 0.74940582,0.74940582 0 0 1 0.5302515,0.30284 0.84986811,0.84986811 0 0 1 0.1679046,0.47781 v 0.22564 c 0,0.0719 0.00238,0.14848 0.00706,0.23035 a 0.4958027,0.4958027 0 0 0 0.027093,0.15967 l 0.019447,0.0383 H -5.87995 c -0.00238,-0.01 -0.00529,-0.02 -0.00765,-0.0306 -0.00238,-0.01 -0.00529,-0.0212 -0.00765,-0.0342 l -0.0118,-0.0996 v -0.2445 a 0.75670832,0.75670832 0 0 0 -0.2910416,-0.70644 1.3209587,1.3209587 0 0 0 -0.6050757,-0.0984 h -0.4288895 v 1.21367 h -0.5444067 v -3.08716 z m 0.587375,0.48664 a 1.4162352,1.4162352 0 0 0 -0.6588125,-0.11488 h -0.4647406 v 1.11824 h 0.4913577 a 1.476375,1.476375 0 0 0 0.5185833,-0.0688 0.55520166,0.55520166 0 0 0 0.1137708,-0.93442"
         id="path5748" />
    </g>
  </g>
</svg>
